<?xml version="1.0" standalone="no"?>
<!DOCTYPE svg PUBLIC "-//W3C//DTD SVG 20010904//EN"
 "https://www.w3.org/TR/2001/REC-SVG-20010904/DTD/svg10.dtd">
<svg version="1.0" xmlns="http://www.w3.org/2000/svg"
 width="512.000000pt" height="512.000000pt" viewBox="0 0 512.000000 512.000000"
 preserveAspectRatio="xMidYMid meet">

<g transform="translate(0.000000,512.000000) scale(0.100000,-0.100000)"
fill="#000000" stroke="none">
<path d="M2655 4626 c-37 -17 -70 -52 -84 -89 -7 -19 -11 -220 -11 -602 l0
-573 -97 -6 c-418 -27 -660 -63 -917 -137 -348 -100 -599 -240 -817 -458 -284
-285 -435 -622 -514 -1151 -37 -245 -70 -901 -51 -1003 15 -81 105 -139 191
-123 60 12 89 48 179 222 206 398 383 600 671 762 301 170 656 251 1252 287
l103 7 2 -590 c3 -579 3 -591 24 -618 48 -65 126 -90 192 -63 48 21 2152 1966
2168 2006 17 39 18 79 3 122 -8 23 -299 298 -1068 1008 -581 536 -1066 982
-1079 991 -32 21 -110 25 -147 8z m1085 -1306 c448 -413 815 -755 815 -760 0
-5 -376 -355 -835 -779 l-835 -771 -5 484 c-5 470 -6 485 -26 512 -44 59 -67
69 -177 73 -227 7 -669 -33 -922 -84 -528 -107 -936 -329 -1196 -652 l-62 -78
7 90 c9 117 42 337 67 445 88 384 270 679 537 870 103 74 309 176 442 219 273
88 586 134 1027 149 220 8 228 10 277 76 20 27 21 40 24 513 l3 486 22 -20
c12 -12 389 -359 837 -773z"/>
</g>
</svg>
